<svg width="20" height="17" viewBox="0 0 20 17" fill="none" xmlns="http://www.w3.org/2000/svg">
<g clip-path="url(#clip0)">
<path d="M10.1603 6.4413H11.414V4.95995H13.1379V3.8826H11.414V2.40125H10.1603V3.8826H8.4365V4.95995H10.1603V6.4413ZM16.2721 3.74793V7.45131L6.43842 8.94613L4.51869 2.40125H1.58034C1.37253 2.40125 1.17323 2.47219 1.02628 2.59846C0.879337 2.72474 0.796783 2.89601 0.796783 3.07459C0.796783 3.25317 0.879337 3.42444 1.02628 3.55071C1.17323 3.67699 1.37253 3.74793 1.58034 3.74793H3.31985L5.85075 12.5014H16.2721V11.1547H7.0731L6.81453 10.2592L17.8392 8.58253V3.74793H16.2721ZM6.08581 13.1747C5.85335 13.1747 5.62611 13.234 5.43283 13.3449C5.23955 13.4559 5.0889 13.6137 4.99994 13.7982C4.91098 13.9828 4.88771 14.1859 4.93306 14.3818C4.97841 14.5777 5.09035 14.7577 5.25472 14.8989C5.4191 15.0402 5.62852 15.1364 5.85652 15.1753C6.08451 15.2143 6.32083 15.1943 6.5356 15.1179C6.75036 15.0414 6.93393 14.912 7.06308 14.7459C7.19222 14.5798 7.26116 14.3845 7.26116 14.1847C7.26116 13.9169 7.13733 13.66 6.91691 13.4706C6.69649 13.2811 6.39753 13.1747 6.08581 13.1747ZM15.4885 13.1747C15.2561 13.1747 15.0288 13.234 14.8356 13.3449C14.6423 13.4559 14.4916 13.6137 14.4027 13.7982C14.3137 13.9828 14.2904 14.1859 14.3358 14.3818C14.3811 14.5777 14.4931 14.7577 14.6574 14.8989C14.8218 15.0402 15.0312 15.1364 15.2592 15.1753C15.4872 15.2143 15.7236 15.1943 15.9383 15.1179C16.1531 15.0414 16.3366 14.912 16.4658 14.7459C16.5949 14.5798 16.6639 14.3845 16.6639 14.1847C16.6639 13.9169 16.54 13.66 16.3196 13.4706C16.0992 13.2811 15.8003 13.1747 15.4885 13.1747Z" fill="white"/>
</g>
<defs>
<clipPath id="clip0">
<rect width="18.8054" height="16.1602" fill="white" transform="translate(0.600891 0.381226)"/>
</clipPath>
</defs>
</svg>
