<?xml version="1.0" encoding="iso-8859-1"?>
<!-- Generator: Adobe Illustrator 21.1.0, SVG Export Plug-In . SVG Version: 6.00 Build 0)  -->
<svg version="1.1" id="Layer_1" xmlns="http://www.w3.org/2000/svg" xmlns:xlink="http://www.w3.org/1999/xlink" x="0px" y="0px"
	 viewBox="0 0 24 24" enable-background="new 0 0 24 24" xml:space="preserve">
<g>
	<path fill="#303C42" d="M22,7c-1.1030273,0-2,0.8969727-2,2v1h-9V0.5C11,0.2236328,10.7763672,0,10.5,0
		C4.7104492,0,0,4.7104492,0,10.5c0,3.6014404,1.8240356,6.7835693,4.5953979,8.6757813C3.6640625,19.5397339,3,20.4413452,3,21.5
		C3,22.878418,4.121582,24,5.5,24S8,22.878418,8,21.5c0-0.3013916-0.0620117-0.586792-0.1602173-0.8546143
		C8.6911011,20.8688965,9.5795288,21,10.5,21s1.8088989-0.1311035,2.6602173-0.3546143C13.0620117,20.913208,13,21.1986084,13,21.5
		c0,1.378418,1.121582,2.5,2.5,2.5s2.5-1.121582,2.5-2.5c0-1.0586548-0.6640625-1.9602661-1.5953979-2.3242188
		C19.1759644,17.2835693,21,14.1014404,21,10.5V9c0-0.5512695,0.4487305-1,1-1s1,0.4487305,1,1v0.5
		c0,0.2763672,0.2236328,0.5,0.5,0.5S24,9.7763672,24,9.5V9C24,7.8969727,23.1030273,7,22,7z"/>
	<circle fill="#546F7A" cx="5.5" cy="21.5" r="1.5"/>
	<circle fill="#303C42" cx="5.5" cy="21.5" r="0.5"/>
	<circle fill="#546F7A" cx="15.5" cy="21.5" r="1.5"/>
	<path fill="#FFCB29" d="M10,9.2929688L4.1552124,3.4481812C5.7235107,2.0356445,7.756958,1.130127,10,1.0131836V9.2929688z"/>
	<path fill="#F78F1E" d="M3.4481812,4.1552124L9.2929688,10H1.0131836C1.130127,7.756958,2.0356445,5.7235107,3.4481812,4.1552124z"
		/>
	<path fill="#546F7A" d="M10.5,20c-5.0703125,0-9.2260742-3.9931641-9.4868164-9h18.9736328
		C19.7260742,16.0068359,15.5703125,20,10.5,20z"/>
	<path opacity="0.1" fill="#010101" d="M17.8403931,11c-1.6074829,2.9717407-4.7445679,5-8.3535767,5
		s-6.7460938-2.0282593-8.3535767-5H1.0131836C1.2739258,16.0068359,5.4296875,20,10.5,20s9.2260742-3.9931641,9.4868164-9
		H17.8403931z"/>
	<circle fill="#303C42" cx="15.5" cy="21.5" r="0.5"/>
	<linearGradient id="SVGID_1_" gradientUnits="userSpaceOnUse" x1="-0.0762481" y1="8.3371658" x2="20.1878567" y2="17.7864742">
		<stop  offset="0" style="stop-color:#FFFFFF;stop-opacity:0.2"/>
		<stop  offset="1" style="stop-color:#FFFFFF;stop-opacity:0"/>
	</linearGradient>
	<path fill="url(#SVGID_1_)" d="M22,7c-1.1030273,0-2,0.8969727-2,2v1h-9V0.5C11,0.2236328,10.7763672,0,10.5,0
		C4.7104492,0,0,4.7104492,0,10.5c0,3.6014404,1.8240356,6.7835693,4.5953979,8.6757813C3.6640625,19.5397339,3,20.4413452,3,21.5
		C3,22.878418,4.121582,24,5.5,24S8,22.878418,8,21.5c0-0.3013916-0.0620117-0.586792-0.1602173-0.8546143
		C8.6911011,20.8688965,9.5795288,21,10.5,21s1.8088989-0.1311035,2.6602173-0.3546143C13.0620117,20.913208,13,21.1986084,13,21.5
		c0,1.378418,1.121582,2.5,2.5,2.5s2.5-1.121582,2.5-2.5c0-1.0586548-0.6640625-1.9602661-1.5953979-2.3242188
		C19.1759644,17.2835693,21,14.1014404,21,10.5V9c0-0.5512695,0.4487305-1,1-1s1,0.4487305,1,1v0.5
		c0,0.2763672,0.2236328,0.5,0.5,0.5S24,9.7763672,24,9.5V9C24,7.8969727,23.1030273,7,22,7z"/>
</g>
<g>
</g>
<g>
</g>
<g>
</g>
<g>
</g>
<g>
</g>
<g>
</g>
<g>
</g>
<g>
</g>
<g>
</g>
<g>
</g>
<g>
</g>
<g>
</g>
<g>
</g>
<g>
</g>
<g>
</g>
</svg>
