<?xml version="1.0" encoding="iso-8859-1"?>
<!-- Generator: Adobe Illustrator 19.0.0, SVG Export Plug-In . SVG Version: 6.00 Build 0)  -->
<svg xmlns="http://www.w3.org/2000/svg" xmlns:xlink="http://www.w3.org/1999/xlink" version="1.1" id="Layer_1" x="0px" y="0px" viewBox="0 0 512 512" style="enable-background:new 0 0 512 512;" xml:space="preserve" width="512" height="512">
<g>
	<g>
		<path style="fill:#663325;" d="M301,0C203.8,0,119.801,66,96.7,160.499c-14.7,64.2,0,129.901,39.901,180.3    C176.8,391.199,236.8,420,301,420c107.999,0,198.999-81,209.801-188.401C511.7,224.399,512,217.2,512,210C512,94.2,416.8,0,301,0z    "/>
	</g>
	<path style="fill:#3C1B13;" d="M512,210c0,7.2-0.3,14.399-1.199,21.599C499.999,339,408.999,420,301,420V0   C416.8,0,512,94.2,512,210z"/>
	<path style="fill:#FED2A4;" d="M301,60c-30.601,0-60,9.3-85.499,26.999c-35.101,24.3-58.2,62.401-63.301,105   C151.3,197.999,151,204,151,210c0,82.8,67.2,150,150,150c26.1,0,51.599-6.901,73.801-19.501c22.2-12.599,41.1-30.899,54.6-53.101   C443.5,264.3,452,237.299,452,210C452,127.2,383.8,60,301,60z"/>
	<path style="fill:#C6715A;" d="M241,120v5.4L179,180.3L140.501,210H94.6L62,180.599L0,125.4V120c0-36.901,14.2-67.8,38.8-89.7   C60.7,10.8,89.801,0,121,0C180.7,0,241,41.4,241,120z"/>
	<path style="fill:#FFBD86;" d="M452,210c0,27.299-8.5,54.3-22.599,77.399c-13.5,22.202-32.401,40.501-54.6,53.101   C352.599,353.099,327.1,360,301,360V60C383.8,60,452,127.2,452,210z"/>
	<path style="fill:#B35F49;" d="M241,120v5.4L179,180.3L140.501,210H121V0C180.7,0,241,41.4,241,120z"/>
	<path style="fill:#FF641A;" d="M179,270v46.8c0.3,74.399-5.2,133.7-15.401,195.2h-84.6C71.8,484.399,62.3,401.1,62,315.599V270   l41.599-30H126.7L179,270z"/>
	<path style="fill:#F03800;" d="M179,270v46.8c0.3,74.399-5.2,133.7-15.401,195.2H121V240h5.7L179,270z"/>
	<g>
		<polygon style="fill:#B35F49;" points="91.205,197.461 76.205,107.461 105.795,102.539 120.795,192.539   "/>
	</g>
	<g>
		<polygon style="fill:#99503D;" points="150.795,197.461 121.205,192.539 136.205,102.539 165.795,107.461   "/>
	</g>
	<g>
		<path style="fill:#E0F4FF;" d="M121,181H62v89h117v-89H121z"/>
	</g>
	<rect x="121" y="181" style="fill:#BBDCFF;" width="58" height="89"/>
</g>















</svg>
