<svg height="512" viewBox="0 0 512 512" width="512" xmlns="http://www.w3.org/2000/svg"><g id="Filled_outline" data-name="Filled outline"><path d="m376 312v176h-264l-24.13-46.06-7.47-14.26-5.87-11.22-7.48-14.28-21.41-40.87-21.64-41.31a49.464 49.464 0 0 1 75.94 15.89l20.06 40.11v-224h64v160a32 32 0 0 1 64 0 32 32 0 0 1 64 0 32 32 0 0 1 64 0z" fill="#fec9a3"/><rect fill="#348fd9" height="192" rx="24" width="128" x="88" y="24"/><path d="m120 56h64v96h-64z" fill="#60d1e0"/><path d="m120 152h64v32h-64z" fill="#e0e0de"/><path d="m144 80h16v16h-16z" fill="#4eb9c7"/><path d="m144 112h16v16h-16z" fill="#4eb9c7"/><path d="m120 56h64v16h-64z" fill="#5ac6d4"/><path d="m248 56v56l-40 24 40 24v56a32 32 0 0 0 32 32h176a32 32 0 0 0 32-32v-160a32 32 0 0 0 -32-32h-176a32 32 0 0 0 -32 32z" fill="#a0dde5"/><path d="m367.633 208 69.731-65.191a42.73 42.73 0 0 0 12.14-42.094c-8.063-30.628-45.477-42.147-69.371-21.359l-12.5 10.875-11.869-10.445c-23.775-20.923-61.257-9.5-69.321 21.127a42.59 42.59 0 0 0 11.971 41.833z" fill="#d75246"/><path d="m368 168a8 8 0 0 1 -7.153-4.422l-17.835-35.67-8.354 12.53a8 8 0 0 1 -6.658 3.562h-56v-16h51.719l13.625-20.438a8 8 0 0 1 13.811.86l15.8 31.592 17.555-46.823a8 8 0 0 1 14.918-.162l13.988 34.971h50.584v16h-56a8 8 0 0 1 -7.428-5.029l-8.332-20.828-16.75 44.666a8 8 0 0 1 -7.071 5.18c-.141.011-.281.011-.419.011z" fill="#348fd9"/><g fill="#e0e0de"><path d="m31.999 41.373h16.001v45.255h-16.001z" transform="matrix(.707 -.707 .707 .707 -33.539 47.029)"/><path d="m17.373 167.999h45.255v16.001h-45.255z" transform="matrix(.707 -.707 .707 .707 -112.735 79.833)"/><path d="m16 112h32v16h-32z"/></g><path d="m72 344-24 16-2.36 1.31-21.64-41.31a49.089 49.089 0 0 1 30.27-11.46z" fill="#fed9bf"/><path d="m100.53 398.59-26 17.87-7.48-14.28 24.42-16.77z" fill="#feb784"/><path d="m116.48 422.63-28.61 19.31-7.47-14.26 27.12-18.31z" fill="#feb784"/><path d="m120 216h64v16h-64z" fill="#fec093"/><path d="m368 480h-251.159l-22.367-42.7 21.964-14.643-8.876-13.312-20.554 13.7-5.993-11.442 19.423-12.949-8.876-13.312-18.013 12.011-17.381-33.184 20.27-13.513a8 8 0 0 0 2.717-10.234l-11-21.99a41.089 41.089 0 0 1 24.625 21.036l20.06 40.11a8 8 0 0 0 15.16-3.578v-136h-16v102.118l-4.9-9.805a57.771 57.771 0 0 0 -53.038-31.77 56.813 56.813 0 0 0 -35.182 13.311 8 8 0 0 0 -1.967 9.858l88 168a8 8 0 0 0 7.087 4.288h264a8 8 0 0 0 8-8v-48h-16zm-333.69-157.56a40.676 40.676 0 0 1 15.232-5.468l12.145 24.289-12.987 8.656z"/><path d="m344 272a39.742 39.742 0 0 0 -28.287 11.713 40.564 40.564 0 0 0 -3.73 4.291 39.984 39.984 0 0 0 -60.27-4.291 40.564 40.564 0 0 0 -3.73 4.291 40 40 0 0 0 -55.983-8.018v-55.986a32.036 32.036 0 0 0 32-32v-24h-16v24a16.019 16.019 0 0 1 -16 16h-80a16.019 16.019 0 0 1 -16-16v-144a16.019 16.019 0 0 1 16-16h80a16.019 16.019 0 0 1 16 16v56h16v-56a32.036 32.036 0 0 0 -32-32h-80a32.036 32.036 0 0 0 -32 32v144a32.036 32.036 0 0 0 32 32h64v88a8 8 0 0 0 16 0 24 24 0 0 1 48 0 8 8 0 0 0 16 0 24 24 0 0 1 48 0 8 8 0 0 0 16 0 24 24 0 0 1 48 0v112h16v-112a40.045 40.045 0 0 0 -40-40z"/><path d="m120 48a8 8 0 0 0 -8 8v128a8 8 0 0 0 8 8h64a8 8 0 0 0 8-8v-128a8 8 0 0 0 -8-8zm56 128h-48v-16h48zm0-32h-48v-80h48z"/><path d="m144 80h16v16h-16z"/><path d="m144 112h16v16h-16z"/><path d="m496 176v-120a40.045 40.045 0 0 0 -40-40h-176a40.045 40.045 0 0 0 -40 40v51.471l-36.116 21.669a8 8 0 0 0 0 13.72l36.116 21.669v51.471a40.045 40.045 0 0 0 40 40h176a40.045 40.045 0 0 0 40-40v-24h-16v24a24.028 24.028 0 0 1 -24 24h-176a24.028 24.028 0 0 1 -24-24v-56a8 8 0 0 0 -3.884-6.86l-28.567-17.14 28.567-17.14a8 8 0 0 0 3.884-6.86v-56a24.028 24.028 0 0 1 24-24h176a24.028 24.028 0 0 1 24 24v120z"/><path d="m272 144h16.653a50.755 50.755 0 0 0 4.274 4.567l69.219 65.254a8 8 0 0 0 10.951.023l69.73-65.191a50.908 50.908 0 0 0 4.382-4.653h16.791v-16h-7.811a50.733 50.733 0 0 0 -81.307-54.68l-7.219 6.28-6.613-5.822a50.588 50.588 0 0 0 -81.33 54.222h-7.72zm95.655 53.027-56.248-53.027h16.593a8 8 0 0 0 6.656-3.562l8.354-12.53 17.835 35.67a8 8 0 0 0 7.155 4.422c.14 0 .28 0 .421-.011a8 8 0 0 0 7.071-5.18l16.75-44.666 8.332 20.828a8 8 0 0 0 7.426 5.029h16.375zm-73.475-94.077a34.365 34.365 0 0 1 23.364-24.279 34.812 34.812 0 0 1 10.17-1.525 34.373 34.373 0 0 1 22.765 8.644l11.869 10.446a8 8 0 0 0 10.536.031l12.5-10.875a34.727 34.727 0 0 1 53.403 42.608h-25.371l-13.988-34.971a8 8 0 0 0 -14.918.162l-17.559 46.823-15.8-31.592a8 8 0 0 0 -13.811-.86l-13.621 20.438h-26.619a34.555 34.555 0 0 1 -2.92-25.05z"/><path d="m31.999 41.373h16.001v45.255h-16.001z" transform="matrix(.707 -.707 .707 .707 -33.539 47.029)"/><path d="m17.373 167.999h45.255v16.001h-45.255z" transform="matrix(.707 -.707 .707 .707 -112.735 79.833)"/><path d="m16 112h32v16h-32z"/></g></svg>