<svg id="_x31__x2C_5" height="512" viewBox="0 0 24 24" width="512" xmlns="http://www.w3.org/2000/svg"><path d="m8.25 24v-2.746c0-2.752-.946-5.42-2.679-7.558l-5.571-6.446v-7.25h12.75l6.999 6.286c2.586 1.995 3.877 5.12 3.405 8.238l-1.36 9.476z" fill="#ffcc80"/><g fill="#cfd8dc"><path d="m11.75 24s.023-4.089.11-4.936c.108-1.049.645-1.751 1.406-2.101 1.312-.603 2.864.118 3.649 1.637.348.674.416 1.378.243 2.131-.083.363-.187.732-.338 1.052-.337.721-.487 2.217-.487 2.217z"/><path d="m19.809 15.681c-.353.752-1.201.75-1.626.047-.582-.964-.578-2.514.009-3.473.418-.682 1.226-.674 1.614.031.667 1.21.51 2.316.003 3.395z"/><path d="m16.16 8.07c-.204-.771-.798-1.419-1.553-1.676-.605-.205-1.203-.181-1.72.008-.635.232-1.34.145-1.817-.333l-5.32-6.069h-5.75v1.25l7.992 7.742c.516.516.615 1.274.386 1.967-.083.249-.128.515-.128.791 0 1.653 1.608 2.934 3.344 2.361 1.037-.342 1.705-1.404 1.653-2.494-.007-.152-.028-.298-.067-.437.18.05.37.07.57.07 1.601 0 2.852-1.508 2.41-3.18z"/></g><path d="m16.334 24c-.049 0-.099-.005-.149-.015-.406-.082-.669-.477-.587-.883.007-.034.172-.844.543-1.637.105-.225.196-.512.286-.902.138-.602.082-1.115-.179-1.618-.603-1.167-1.752-1.728-2.669-1.301-.571.263-.898.766-.973 1.495-.068.666-.1 3.197-.106 4.115-.003.414-.338.746-.75.746-.001 0-.003 0-.005 0-.414-.003-.748-.341-.745-.755.001-.138.025-3.385.114-4.258.129-1.259.782-2.22 1.838-2.706 1.663-.765 3.653.084 4.629 1.975.42.813.523 1.703.308 2.644-.114.496-.238.879-.39 1.203-.291.62-.43 1.289-.431 1.295-.071.356-.384.602-.734.602z"/><path d="m19.007 17c-.585 0-1.128-.326-1.465-.885-.722-1.195-.717-3.063.011-4.252.339-.554.895-.859 1.48-.863.585.014 1.12.358 1.431.924.704 1.277.712 2.611.025 4.075v.001c-.279.594-.803.967-1.4.998-.027.001-.055.002-.082.002zm-.009-4.5c-.037 0-.104.045-.166.146-.438.715-.441 1.974-.006 2.693.073.12.177.166.185.16.023-.001.073-.039.12-.139.488-1.04.494-1.853.019-2.714-.055-.099-.117-.145-.152-.146.001 0 .001 0 0 0z"/><path d="m8.25 24c-.414 0-.75-.336-.75-.75v-1.996c0-2.571-.892-5.088-2.511-7.085l-4.822-5.946c-.26-.323-.211-.794.111-1.056.32-.26.794-.212 1.055.11l4.821 5.946c1.835 2.265 2.846 5.117 2.846 8.031v1.996c0 .414-.336.75-.75.75z"/><path d="m21.795 24c-.039 0-.077-.003-.117-.009-.409-.063-.689-.447-.625-.856l1.36-8.726c.428-2.827-.768-5.713-3.121-7.529l-7.007-5.542c-.325-.257-.38-.729-.123-1.053.257-.326.729-.38 1.054-.123l7 5.536c2.778 2.144 4.191 5.57 3.681 8.938l-1.36 8.729c-.059.37-.379.635-.742.635z"/><path d="m10.749 15c-.68 0-1.339-.209-1.901-.615-.844-.611-1.348-1.596-1.348-2.635 0-.35.056-.695.165-1.027.156-.469.079-.918-.204-1.201l-7.241-7.242c-.293-.293-.293-.768 0-1.061s.768-.293 1.061 0l7.242 7.241c.683.683.9 1.73.567 2.733-.06.18-.09.368-.09.557 0 .56.271 1.09.727 1.419.47.34 1.048.421 1.633.23.697-.23 1.176-.965 1.139-1.746-.005-.102-.019-.194-.041-.274-.072-.261.002-.54.194-.731s.473-.265.733-.189c.1.028.22.042.366.042.547 0 1.053-.249 1.388-.685.34-.441.445-.993.297-1.554-.14-.53-.561-.985-1.07-1.158-.413-.14-.834-.139-1.221.003-.948.346-1.946.152-2.605-.507l-5.32-5.32c-.293-.293-.293-.768 0-1.061s.768-.293 1.061 0l5.319 5.32c.247.245.632.304 1.03.159.711-.261 1.478-.266 2.218-.015.988.335 1.769 1.177 2.038 2.195.266 1.005.063 2.045-.559 2.852-.572.743-1.414 1.194-2.337 1.261-.103 1.284-.962 2.438-2.161 2.832-.358.118-.722.177-1.08.177z"/></svg>