<svg width="20" height="22" viewBox="0 0 20 22" fill="none" xmlns="http://www.w3.org/2000/svg">
<path fill-rule="evenodd" clip-rule="evenodd" d="M0.208344 18.3334C0.208344 14.9161 2.72674 12.1459 5.83334 12.1459H14.1667C17.2733 12.1459 19.7917 14.9161 19.7917 18.3334V20.1667C19.7917 21.0527 19.1388 21.7709 18.3333 21.7709H1.66668C0.86126 21.7709 0.208344 21.0527 0.208344 20.1667V18.3334ZM5.83334 13.5209C3.4171 13.5209 1.45834 15.6755 1.45834 18.3334V20.1667C1.45834 20.2933 1.55162 20.3959 1.66668 20.3959H18.3333C18.4484 20.3959 18.5417 20.2933 18.5417 20.1667V18.3334C18.5417 15.6755 16.5829 13.5209 14.1667 13.5209H5.83334Z" fill="white"/>
<path fill-rule="evenodd" clip-rule="evenodd" d="M9.58333 1.60419C7.39721 1.60419 5.625 3.55362 5.625 5.95835C5.625 8.36309 7.39721 10.3125 9.58333 10.3125C11.7695 10.3125 13.5417 8.36309 13.5417 5.95835C13.5417 3.55362 11.7695 1.60419 9.58333 1.60419ZM4.375 5.95835C4.375 2.79422 6.70685 0.229187 9.58333 0.229187C12.4598 0.229187 14.7917 2.79422 14.7917 5.95835C14.7917 9.12249 12.4598 11.6875 9.58333 11.6875C6.70685 11.6875 4.375 9.12249 4.375 5.95835Z" fill="white"/>
</svg>
