<svg width="55" height="55" viewBox="0 0 55 55" fill="none" xmlns="http://www.w3.org/2000/svg">
<path d="M19.7656 37.8125V45.1172C19.7656 46.304 20.7273 47.2656 21.9141 47.2656C23.1009 47.2656 24.0625 46.304 24.0625 45.1172V37.8125H19.7656Z" fill="#EFBC2E"/>
<path d="M21.4096 42.3285L24.0625 43.8436V39.8845L23.118 39.3457C22.4151 38.9417 21.6477 38.6788 20.8407 38.5628L19.7656 38.4089V41.8817L20.3552 41.9659C20.729 42.0192 21.083 42.1403 21.4096 42.3285Z" fill="#EF941D"/>
<path d="M38.1563 32.1406L36.3653 30.3505C35.6323 29.6166 35.1622 28.661 35.0298 27.6315L32.3469 6.83977C32.0323 4.40258 29.957 2.57812 27.5 2.57812C25.043 2.57812 22.9677 4.40258 22.6531 6.83977L19.9702 27.6315C19.8378 28.661 19.3677 29.6166 18.6347 30.3505L16.8438 32.1406C15.9629 33.0206 15.4688 34.2152 15.4688 35.4604C15.4688 37.7962 17.1866 39.777 19.4984 40.107L20.5975 40.2643C21.1827 40.3477 21.7491 40.541 22.2621 40.8358L25.1711 42.497C26.614 43.322 28.386 43.322 29.8289 42.497L32.7379 40.8358C33.2509 40.541 33.8173 40.3477 34.4025 40.2643L35.5016 40.107C37.8134 39.777 39.5312 37.7962 39.5312 35.4604C39.5312 34.2152 39.0371 33.0206 38.1563 32.1406Z" fill="#F2DAAE"/>
<path d="M33.5156 43.8281C33.5156 43.8281 30.9375 47.471 30.9375 49.8438C30.9375 52.2165 32.0916 53.2812 33.5156 53.2812C34.9396 53.2812 36.0938 52.2165 36.0938 49.8438C36.0938 47.471 33.5156 43.8281 33.5156 43.8281Z" fill="#62C4C3"/>
<path d="M29.8289 42.497L32.7379 40.8358C33.2509 40.541 33.8173 40.3477 34.4025 40.2643L35.5016 40.107C37.8134 39.777 39.5312 37.7962 39.5312 35.4604C39.5312 34.2152 39.0371 33.0206 38.1563 32.1406L36.3653 30.3505C35.6323 29.6166 35.1622 28.661 35.0298 27.6315L32.3469 6.83977C32.0323 4.40258 29.957 2.57812 27.5 2.57812V43.1157C28.3035 43.1157 29.1079 42.9095 29.8289 42.497Z" fill="#E0C494"/>
<path d="M31.4608 52.1005C31.9318 52.8971 32.6726 53.2812 33.5156 53.2812C34.9396 53.2812 36.0937 52.2165 36.0937 49.8437C36.0937 48.7833 35.579 47.471 35.0092 46.3427C34.4979 49.1365 33.1555 51.3167 31.4608 52.1005Z" fill="#42A5B2"/>
</svg>
