<svg width="15" height="15" viewBox="0 0 15 15" fill="none" xmlns="http://www.w3.org/2000/svg">
<g clip-path="url(#clip0)">
<path d="M-0.00180054 14.4352C0.472199 13.5144 0.963599 12.6023 1.4136 11.6711C1.6848 11.1109 2.055 10.6454 2.5086 10.2109C5.7828 7.0771 9.0432 3.92941 12.3072 0.785757C12.591 0.512873 12.9132 0.32595 13.3242 0.284411C13.9956 0.216911 14.7 0.64845 14.9076 1.27268C15.1086 1.87903 14.9442 2.39537 14.487 2.83614C13.6644 3.63056 12.84 4.42326 12.0162 5.21595C9.3936 7.74056 6.7722 10.2663 4.1472 12.7886C4.0512 12.8809 3.9348 12.9623 3.8136 13.0211C2.7084 13.5588 1.6002 14.0896 0.493199 14.6238C0.442799 14.6481 0.397799 14.6827 0.350999 14.7127C0.233399 14.7127 0.115799 14.7127 -0.00180054 14.7127C-0.00180054 14.6204 -0.00180054 14.5275 -0.00180054 14.4352ZM11.8014 2.00941C8.6832 5.01056 5.5632 8.01403 2.463 10.9979C2.9256 11.4438 3.399 11.8996 3.8556 12.3404C6.9612 9.3496 10.0806 6.34499 13.1922 3.34787C12.7332 2.90595 12.2628 2.45306 11.8014 2.00941ZM13.6164 2.99018C13.7838 2.82691 13.9602 2.65787 14.1336 2.48537C14.196 2.42249 14.2572 2.35672 14.3082 2.28518C14.5458 1.9546 14.5392 1.50864 14.2962 1.18903C14.0268 0.834219 13.5954 0.684796 13.185 0.809411C12.7308 0.947296 12.498 1.33787 12.1782 1.6021C12.6636 2.07056 13.1328 2.52345 13.6164 2.99018ZM3.3894 12.6836C2.9586 12.2688 2.5368 11.8638 2.1048 11.449C1.6914 12.2458 1.272 13.0534 0.852599 13.8611C0.863999 13.8704 0.874799 13.8796 0.885599 13.8883C1.7226 13.4856 2.5596 13.0829 3.3894 12.6836Z" fill="#757575"/>
</g>
<defs>
<clipPath id="clip0">
<rect width="15" height="15" fill="white"/>
</clipPath>
</defs>
</svg>
