<svg width="21" height="21" viewBox="0 0 21 21" fill="none" xmlns="http://www.w3.org/2000/svg">
<path d="M10.5 21C16.299 21 21 16.299 21 10.5C21 4.70101 16.299 0 10.5 0C4.70101 0 0 4.70101 0 10.5C0 16.299 4.70101 21 10.5 21Z" fill="#31AF91"/>
<path d="M16.8984 9.35156H11.6484V4.10156C11.6484 4.00312 11.5828 3.9375 11.4844 3.9375H9.51562C9.41719 3.9375 9.35156 4.00312 9.35156 4.10156V9.35156H4.10156C4.00312 9.35156 3.9375 9.41719 3.9375 9.51562V11.4844C3.9375 11.5828 4.00312 11.6484 4.10156 11.6484H9.35156V16.8984C9.35156 16.9969 9.41719 17.0625 9.51562 17.0625H11.4844C11.5828 17.0625 11.6484 16.9969 11.6484 16.8984V11.6484H16.8984C16.9969 11.6484 17.0625 11.5828 17.0625 11.4844V9.51562C17.0625 9.41719 16.9969 9.35156 16.8984 9.35156Z" fill="white"/>
</svg>
