<svg width="66" height="66" viewBox="0 0 66 66" fill="none" xmlns="http://www.w3.org/2000/svg">
<g clip-path="url(#clip0)">
<path d="M27.488 63.51C25.884 61.906 25 59.77 25 57.499V40.999L8.499 40.998C6.228 40.999 4.094 40.115 2.488 38.509C0.883001 36.904 8.47487e-07 34.77 8.47487e-07 32.499C-0.000999153 30.229 0.883001 28.094 2.488 26.488C4.094 24.883 6.228 23.999 8.5 24L24.999 23.999L25 8.499C24.999 6.229 25.883 4.094 27.488 2.488C29.093 0.882001 31.229 -0.000999152 33.499 8.48446e-07C35.77 8.48446e-07 37.902 0.883001 39.51 2.489C41.115 4.093 41.999 6.229 41.998 8.5L41.999 24H57.499C59.77 24 61.902 24.883 63.51 26.489C65.116 28.093 66 30.23 65.998 32.499C65.999 34.77 65.115 36.904 63.51 38.51C61.906 40.116 59.77 40.999 57.499 40.998L41.999 41L41.998 57.499C41.999 59.77 41.115 61.902 39.51 63.51C37.905 65.115 35.77 65.999 33.499 65.998C31.23 66 29.095 65.116 27.488 63.51ZM28.414 37.585C28.775 37.947 28.999 38.446 28.999 38.999L29 57.499C29 58.703 29.468 59.832 30.317 60.682C31.168 61.533 32.297 61.999 33.499 61.999C34.702 61.999 35.831 61.53 36.682 60.682C37.533 59.831 38 58.703 37.998 57.5L38 39C38 37.896 38.895 37 40 37L57.499 36.999C58.703 36.999 59.831 36.531 60.682 35.682C61.532 34.831 61.999 33.703 61.999 32.499C61.999 31.297 61.529 30.167 60.682 29.317C59.832 28.467 58.703 27.999 57.501 28.001L39.999 27.999C38.895 27.999 37.999 27.104 37.999 26L37.998 8.499C37.999 7.297 37.529 6.167 36.682 5.317C35.831 4.467 34.702 3.999 33.5 4C32.297 4 31.167 4.467 30.316 5.317C29.466 6.167 29 7.296 28.999 8.499V25.999C28.999 27.103 28.103 27.999 26.999 27.999L8.499 28C7.297 28 6.167 28.467 5.316 29.317C4.468 30.166 4 31.297 3.999 32.499C3.999 33.702 4.468 34.831 5.316 35.682C6.167 36.533 7.296 36.999 8.499 36.998L26.999 37C27.552 37 28.052 37.225 28.414 37.585Z" fill="black"/>
</g>
<defs>
<clipPath id="clip0">
<rect width="65.998" height="65.998" fill="white"/>
</clipPath>
</defs>
</svg>
