<?xml version="1.0" encoding="iso-8859-1"?>
<!-- Generator: Adobe Illustrator 19.1.0, SVG Export Plug-In . SVG Version: 6.00 Build 0)  -->
<svg version="1.1" id="Capa_1" xmlns="http://www.w3.org/2000/svg" xmlns:xlink="http://www.w3.org/1999/xlink" x="0px" y="0px"
	 viewBox="0 0 62.069 62.069" style="enable-background:new 0 0 62.069 62.069;" xml:space="preserve">
<g>
	<g id="group-3svg">
		<path id="path-1_13_" d="M20.019,44.967c-1.901,0-3.54-1.157-4.177-2.946l-0.488-1.372c-1.088-0.318-2.134-0.747-3.125-1.28
			l-1.3,0.617c-2.013,0.96-4.491,0.206-5.666-1.653c-0.821-1.299-0.909-2.849-0.242-4.252l0.616-1.302
			c-0.536-0.995-0.965-2.037-1.281-3.116l-1.391-0.491C1.162,28.531,0,26.885,0,24.977c0-1.892,1.152-3.524,2.934-4.157l1.442-0.527
			c0.201-0.498,0.449-0.962,0.676-1.388c0.235-0.44,0.495-0.928,0.589-1.269L4.885,15.85c-0.63-1.322-0.538-2.854,0.277-4.144
			c1.197-1.894,3.734-2.672,5.77-1.702l1.545,0.735c0.89-0.461,1.819-0.837,2.776-1.124l0.589-1.644
			c0.637-1.791,2.276-2.948,4.177-2.948c1.901,0,3.541,1.157,4.177,2.947l0.612,1.72c0.91,0.288,1.792,0.657,2.638,1.103
			l1.662-0.789c2.009-0.957,4.489-0.207,5.665,1.652c0.821,1.3,0.91,2.85,0.242,4.254l-0.787,1.656
			c0.448,0.848,0.82,1.734,1.11,2.645l1.711,0.609c1.79,0.636,2.947,2.275,2.947,4.175s-1.157,3.539-2.947,4.176L35.42,29.75
			c-0.289,0.968-0.668,1.907-1.134,2.803l0.729,1.527c0.668,1.405,0.579,2.955-0.242,4.254c-0.817,1.291-2.252,2.094-3.747,2.094
			c0,0,0,0-0.001,0c-0.658-0.001-1.303-0.149-1.918-0.442l-1.42-0.674c-0.952,0.522-1.948,0.946-2.977,1.266l-0.514,1.443
			C23.56,43.81,21.92,44.967,20.019,44.967z M12.293,36.179c0.271,0,0.54,0.073,0.778,0.217c1.165,0.707,2.436,1.228,3.779,1.548
			c0.494,0.117,0.895,0.477,1.065,0.956l0.753,2.115c0.315,0.885,1.113,0.953,1.351,0.953c0.238,0,1.037-0.068,1.351-0.953
			l0.773-2.172c0.167-0.471,0.557-0.827,1.042-0.95c1.279-0.327,2.506-0.848,3.643-1.551c0.434-0.267,0.974-0.298,1.432-0.078
			l2.135,1.014c0.21,0.1,0.422,0.15,0.631,0.15l0,0c0.475,0,0.939-0.267,1.21-0.697c0.154-0.241,0.366-0.74,0.07-1.364l-1.022-2.145
			c-0.016-0.035-0.049-0.113-0.063-0.149c-0.163-0.425-0.14-0.938,0.089-1.332c0.636-1.089,1.109-2.263,1.409-3.488
			c0.111-0.456,0.431-0.834,0.862-1.02c0.088-0.039,0.158-0.069,0.233-0.095l2.229-0.792c0.885-0.315,0.953-1.113,0.953-1.351
			c0-0.237-0.068-1.036-0.953-1.35l-2.24-0.798c-0.082-0.027-0.176-0.067-0.269-0.108c-0.415-0.185-0.759-0.564-0.876-1.003
			c-0.308-1.167-0.779-2.289-1.4-3.335c-0.232-0.391-0.274-0.867-0.113-1.293c0.041-0.111,0.084-0.221,0.134-0.329l1.027-2.157
			c0.296-0.623,0.084-1.122-0.07-1.364c-0.39-0.617-1.156-0.872-1.84-0.545l-2.149,1.02c-0.121,0.056-0.234,0.102-0.348,0.145
			c-0.423,0.157-0.897,0.116-1.287-0.116c-1.043-0.617-2.162-1.086-3.329-1.393c-0.44-0.116-0.804-0.426-0.988-0.843
			c-0.049-0.109-0.09-0.205-0.126-0.303L21.37,8.975c-0.314-0.884-1.113-0.952-1.351-0.952c-0.238,0-1.036,0.068-1.351,0.952
			l-0.796,2.24c-0.026,0.074-0.054,0.141-0.084,0.207c-0.188,0.425-0.581,0.781-1.032,0.891c-1.216,0.298-2.383,0.77-3.471,1.402
			c-0.413,0.239-0.917,0.269-1.355,0.077c-0.044-0.016-0.106-0.043-0.165-0.072l-2.121-1.007c-0.706-0.335-1.538-0.05-1.947,0.595
			c-0.182,0.289-0.343,0.752-0.076,1.315l0.936,2.206c0.079,0.185,0.119,0.383,0.119,0.584c0,1.072-0.497,2.004-0.978,2.904
			C7.41,20.859,7.137,21.37,7.02,21.828c-0.123,0.479-0.475,0.866-0.939,1.036l-2.13,0.777C3.068,23.956,3,24.743,3,24.977
			c0,0.241,0.069,1.049,0.967,1.369l2.135,0.753c0.481,0.169,0.842,0.572,0.961,1.068c0.313,1.325,0.835,2.594,1.548,3.77
			c0.26,0.43,0.288,0.963,0.072,1.418l-0.952,2.01c-0.297,0.625-0.085,1.124,0.068,1.365c0.391,0.619,1.154,0.876,1.842,0.548
			l2.009-0.954C11.854,36.227,12.073,36.179,12.293,36.179z M19.979,34.761c-5.236,0-9.494-4.258-9.494-9.492
			c0-5.233,4.258-9.491,9.494-9.491c5.235,0,9.495,4.258,9.495,9.491C29.474,30.503,25.214,34.761,19.979,34.761z M19.979,18.777
			c-3.581,0-6.494,2.913-6.494,6.492c0,3.58,2.913,6.493,6.494,6.493s6.495-2.913,6.495-6.493
			C26.474,21.69,23.56,18.777,19.979,18.777z"/>
		<path id="path-2_13_" d="M48.1,57.046c-1.492,0-2.779-0.908-3.279-2.313l-0.247-0.693c-0.601-0.19-1.185-0.429-1.745-0.715
			l-0.661,0.313c-1.566,0.747-3.526,0.16-4.449-1.299c-0.636-1.005-0.707-2.252-0.191-3.336l0.3-0.648
			c-0.297-0.57-0.542-1.15-0.732-1.735l-0.746-0.254c-1.459-0.519-2.391-1.836-2.391-3.36c0-1.457,0.887-2.713,2.258-3.201
			l0.514-0.218c0.039-0.119,0.079-0.238,0.118-0.355c0.15-0.448,0.293-0.871,0.319-1.173l-0.181-1.124
			c-0.372-0.958-0.263-2.008,0.31-2.915c0.995-1.573,3.222-2.282,4.88-1.495l0.827,0.394c0.487-0.239,0.99-0.443,1.504-0.609
			l0.314-0.88c0.5-1.405,1.787-2.313,3.279-2.313c1.491,0,2.777,0.908,3.277,2.313l0.333,0.936c0.482,0.164,0.95,0.361,1.406,0.588
			l0.906-0.429c1.578-0.748,3.524-0.16,4.444,1.296c0.637,1.006,0.708,2.254,0.193,3.34l-0.428,0.899
			c0.229,0.457,0.426,0.928,0.592,1.411l0.931,0.334c1.405,0.499,2.314,1.786,2.314,3.277s-0.909,2.778-2.314,3.277l-0.869,0.309
			c-0.168,0.519-0.373,1.026-0.614,1.517l0.387,0.817c0.516,1.087,0.445,2.336-0.192,3.341c-0.639,1.011-1.766,1.639-2.939,1.639
			l0,0c-0.518-0.001-1.025-0.117-1.505-0.345l-0.735-0.349c-0.531,0.276-1.08,0.51-1.644,0.698l-0.266,0.747
			C50.878,56.138,49.592,57.046,48.1,57.046z M42.884,50.141c0.27,0,0.539,0.073,0.777,0.217c0.745,0.451,1.556,0.783,2.411,0.986
			c0.495,0.118,0.896,0.477,1.067,0.955l0.509,1.428c0.093,0.264,0.298,0.32,0.452,0.32s0.358-0.056,0.452-0.32l0.521-1.465
			c0.167-0.47,0.559-0.827,1.042-0.95c0.815-0.208,1.597-0.541,2.324-0.989c0.434-0.266,0.972-0.296,1.431-0.079l1.441,0.684
			c0.078,0.037,0.148,0.055,0.217,0.055l0,0c0.152,0,0.311-0.096,0.404-0.243c0.133-0.209,0.046-0.39,0.017-0.45l-0.688-1.448
			c-0.016-0.033-0.044-0.097-0.057-0.132c-0.166-0.425-0.137-0.926,0.093-1.321c0.406-0.697,0.708-1.445,0.898-2.225
			c0.115-0.47,0.451-0.857,0.9-1.036c0.018-0.008,0.125-0.051,0.144-0.058l1.511-0.536c0.263-0.094,0.319-0.298,0.319-0.452
			s-0.056-0.358-0.32-0.452l-1.512-0.538c-0.086-0.031-0.164-0.064-0.24-0.098c-0.415-0.185-0.724-0.548-0.841-0.988
			c-0.196-0.743-0.496-1.458-0.892-2.124c-0.235-0.394-0.275-0.875-0.11-1.303c0.038-0.099,0.068-0.176,0.104-0.252l0.692-1.454
			c0.028-0.058,0.115-0.24-0.018-0.45c-0.135-0.213-0.374-0.307-0.621-0.189l-1.448,0.689c-0.1,0.046-0.183,0.08-0.269,0.112
			c-0.426,0.16-0.901,0.119-1.294-0.112c-0.664-0.394-1.378-0.693-2.122-0.889c-0.448-0.119-0.817-0.437-0.997-0.864
			c-0.04-0.09-0.069-0.161-0.095-0.234l-0.534-1.5c-0.094-0.264-0.298-0.32-0.451-0.32c-0.155,0-0.359,0.056-0.452,0.32
			l-0.538,1.512c-0.012,0.034-0.059,0.148-0.074,0.182c-0.188,0.426-0.57,0.756-1.022,0.867c-0.774,0.19-1.518,0.49-2.213,0.895
			c-0.403,0.234-0.891,0.267-1.322,0.091c-0.035-0.014-0.134-0.056-0.168-0.073l-1.423-0.676c-0.319-0.154-0.848,0.058-1.056,0.388
			c-0.091,0.143-0.061,0.203-0.039,0.252c0.062,0.128,0.104,0.265,0.127,0.406l0.233,1.448c0.012,0.078,0.018,0.157,0.018,0.237
			c0,0.794-0.243,1.519-0.479,2.221c-0.096,0.287-0.196,0.58-0.273,0.88c-0.117,0.454-0.439,0.828-0.872,1.009L37.301,42.6
			c-0.156,0.058-0.342,0.124-0.342,0.406c0,0.093,0.028,0.403,0.378,0.528l1.473,0.502c0.488,0.167,0.856,0.572,0.975,1.074
			c0.19,0.802,0.53,1.612,1.01,2.402c0.26,0.428,0.289,0.957,0.078,1.411l-0.631,1.356c-0.033,0.071-0.119,0.25,0.013,0.458
			c0.136,0.217,0.378,0.309,0.627,0.191l1.36-0.643C42.445,50.188,42.665,50.141,42.884,50.141z M48.073,49.648
			c-3.518,0-6.381-2.863-6.381-6.381c0-3.518,2.863-6.381,6.381-6.381c3.519,0,6.381,2.863,6.381,6.381
			C54.454,46.785,51.592,49.648,48.073,49.648z M48.073,39.886c-1.865,0-3.381,1.516-3.381,3.381c0,1.864,1.516,3.381,3.381,3.381
			c1.865,0,3.381-1.517,3.381-3.381C51.454,41.402,49.938,39.886,48.073,39.886z"/>
	</g>
</g>
<g>
</g>
<g>
</g>
<g>
</g>
<g>
</g>
<g>
</g>
<g>
</g>
<g>
</g>
<g>
</g>
<g>
</g>
<g>
</g>
<g>
</g>
<g>
</g>
<g>
</g>
<g>
</g>
<g>
</g>
</svg>
