<svg width="40" height="44" viewBox="0 0 40 44" fill="none" xmlns="http://www.w3.org/2000/svg">
<g filter="url(#filter0_d)">
<path d="M31.0765 24.6875H15.0507C14.7848 24.6879 14.5267 24.5979 14.3187 24.4322C14.1107 24.2665 13.9652 24.035 13.9062 23.7758L11.2078 12.0195C11.1683 11.8478 11.1681 11.6694 11.2071 11.4975C11.2461 11.3257 11.3234 11.1649 11.4331 11.027C11.5429 10.8892 11.6823 10.7779 11.8411 10.7014C11.9998 10.6249 12.1737 10.5851 12.3499 10.5851H33.7773C33.9537 10.5848 34.1279 10.6242 34.2869 10.7006C34.446 10.777 34.5857 10.8882 34.6957 11.0261C34.8057 11.164 34.8832 11.325 34.9224 11.497C34.9615 11.669 34.9613 11.8476 34.9218 12.0195L32.2187 23.7758C32.1597 24.0347 32.0146 24.2659 31.8071 24.4315C31.5996 24.5971 31.342 24.6874 31.0765 24.6875ZM15.9835 22.3437H30.1437L32.3054 12.9312H13.821L15.9835 22.3437Z" fill="black"/>
<path d="M17.3437 35.1562C16.4556 35.1562 15.5873 34.8929 14.8489 34.3994C14.1104 33.906 13.5348 33.2047 13.1949 32.3841C12.855 31.5635 12.7661 30.6606 12.9394 29.7895C13.1126 28.9184 13.5403 28.1183 14.1684 27.4903C14.7964 26.8622 15.5965 26.4345 16.4676 26.2613C17.3387 26.088 18.2417 26.1769 19.0622 26.5168C19.8828 26.8567 20.5841 27.4323 21.0775 28.1708C21.571 28.9092 21.8343 29.7775 21.8343 30.6656C21.8331 31.8562 21.3596 32.9977 20.5177 33.8396C19.6758 34.6815 18.5343 35.155 17.3437 35.1562ZM17.3437 28.5195C16.9191 28.5195 16.504 28.6455 16.1509 28.8814C15.7978 29.1173 15.5227 29.4527 15.3602 29.845C15.1977 30.2373 15.1552 30.669 15.2381 31.0855C15.3211 31.502 15.5256 31.8845 15.8259 32.1847C16.1262 32.485 16.5089 32.6894 16.9254 32.7721C17.3419 32.8549 17.7736 32.8122 18.1658 32.6496C18.5581 32.487 18.8934 32.2117 19.1292 31.8586C19.365 31.5054 19.4907 31.0903 19.4906 30.6656C19.49 30.0965 19.2636 29.5509 18.8611 29.1485C18.4585 28.7461 17.9128 28.5199 17.3437 28.5195Z" fill="black"/>
<path d="M28.7827 35.1562C27.8946 35.1562 27.0264 34.8929 26.2879 34.3994C25.5494 33.906 24.9738 33.2047 24.6339 32.3841C24.2941 31.5635 24.2051 30.6606 24.3784 29.7895C24.5517 28.9184 24.9794 28.1183 25.6074 27.4903C26.2354 26.8622 27.0356 26.4345 27.9067 26.2613C28.7778 26.088 29.6807 26.1769 30.5012 26.5168C31.3218 26.8567 32.0231 27.4323 32.5166 28.1708C33.01 28.9092 33.2734 29.7775 33.2734 30.6656C33.2721 31.8562 32.7986 32.9977 31.9567 33.8396C31.1148 34.6815 29.9733 35.155 28.7827 35.1562ZM28.7827 28.5195C28.3581 28.5195 27.943 28.6455 27.5899 28.8814C27.2369 29.1173 26.9617 29.4527 26.7992 29.845C26.6367 30.2373 26.5943 30.669 26.6772 31.0855C26.7601 31.502 26.9646 31.8845 27.2649 32.1847C27.5653 32.485 27.9479 32.6894 28.3644 32.7721C28.7809 32.8549 29.2126 32.8122 29.6049 32.6496C29.9971 32.487 30.3324 32.2117 30.5682 31.8586C30.804 31.5054 30.9298 31.0903 30.9296 30.6656C30.929 30.0965 30.7026 29.5509 30.3001 29.1485C29.8976 28.7461 29.3519 28.5199 28.7827 28.5195Z" fill="black"/>
<path d="M12.3499 12.9289C12.104 12.9289 11.8642 12.8515 11.6647 12.7076C11.4652 12.5637 11.316 12.3607 11.2382 12.1273L9.22963 6.09375H5.52338C5.21258 6.09375 4.9145 5.97029 4.69474 5.75052C4.47497 5.53075 4.3515 5.23268 4.3515 4.92188C4.3515 4.61107 4.47497 4.313 4.69474 4.09323C4.9145 3.87347 5.21258 3.75 5.52338 3.75H10.0781C10.324 3.75002 10.5638 3.82745 10.7633 3.97131C10.9629 4.11518 11.1121 4.31818 11.1898 4.55156L13.4656 11.3867C13.5242 11.5629 13.5402 11.7504 13.5122 11.9339C13.4842 12.1175 13.4129 12.2917 13.3044 12.4423C13.1958 12.5929 13.053 12.7156 12.8877 12.8002C12.7225 12.8848 12.5395 12.9289 12.3538 12.9289H12.3499Z" fill="black"/>
</g>
<defs>
<filter id="filter0_d" x="-4" y="0" width="48" height="48" filterUnits="userSpaceOnUse" color-interpolation-filters="sRGB">
<feFlood flood-opacity="0" result="BackgroundImageFix"/>
<feColorMatrix in="SourceAlpha" type="matrix" values="0 0 0 0 0 0 0 0 0 0 0 0 0 0 0 0 0 0 127 0"/>
<feOffset dy="4"/>
<feGaussianBlur stdDeviation="2"/>
<feColorMatrix type="matrix" values="0 0 0 0 0 0 0 0 0 0 0 0 0 0 0 0 0 0 0.25 0"/>
<feBlend mode="normal" in2="BackgroundImageFix" result="effect1_dropShadow"/>
<feBlend mode="normal" in="SourceGraphic" in2="effect1_dropShadow" result="shape"/>
</filter>
</defs>
</svg>
