<svg width="55" height="55" viewBox="0 0 55 55" fill="none" xmlns="http://www.w3.org/2000/svg">
<path d="M32.6562 1.71875H1.71875V8.59375H32.6562V1.71875Z" fill="#588189"/>
<path d="M29.2188 1.71875H1.71875V8.59375H29.2188V1.71875Z" fill="#799AA1"/>
<path d="M6.875 1.71875V5.15625H27.5V1.71875" fill="#9CE5F4"/>
<path d="M24.9219 1.71875H6.875V5.15625H24.9219V1.71875Z" fill="#C4EFF8"/>
<path d="M39.9609 16.7578C40.786 15.9326 41.905 15.4689 43.0719 15.4688H43.8281V16.225C43.8279 17.3919 43.3643 18.5109 42.5391 19.3359C41.714 20.1611 40.595 20.6248 39.4281 20.625H38.6719V19.8688C38.6721 18.7019 39.1357 17.5828 39.9609 16.7578Z" fill="#B6DB38"/>
<path d="M5.15625 8.59375V12.0312L2.22578 14.9617C2.06493 15.1216 1.93732 15.3118 1.8503 15.5212C1.76328 15.7306 1.71857 15.9552 1.71875 16.182V50.7031C1.71875 51.3869 1.99037 52.0426 2.47387 52.5261C2.95736 53.0096 3.61311 53.2812 4.29688 53.2812H30.0781C30.7619 53.2812 31.4176 53.0096 31.9011 52.5261C32.3846 52.0426 32.6562 51.3869 32.6562 50.7031V16.182C32.6564 15.9552 32.6117 15.7306 32.5247 15.5212C32.4377 15.3118 32.3101 15.1216 32.1492 14.9617L29.2188 12.0312V8.59375H5.15625Z" fill="#9CE5F4"/>
<path d="M29.2188 50.7031V16.182C29.2189 15.9552 29.1742 15.7306 29.0872 15.5212C29.0002 15.3118 28.8726 15.1216 28.7117 14.9617L25.7812 12.0312V8.59375H5.15625V12.0312L2.22578 14.9617C2.06493 15.1216 1.93732 15.3118 1.8503 15.5212C1.76328 15.7306 1.71857 15.9552 1.71875 16.182V50.7031C1.71875 51.3869 1.99037 52.0426 2.47387 52.5261C2.95736 53.0096 3.61311 53.2812 4.29688 53.2812H26.6406C27.3244 53.2812 27.9801 53.0096 28.4636 52.5261C28.9471 52.0426 29.2188 51.3869 29.2188 50.7031Z" fill="#C4EFF8"/>
<path d="M32.6562 20.625H1.71875V44.6875H32.6562V20.625Z" fill="#588189"/>
<path d="M29.2188 20.625H1.71875V44.6875H29.2188V20.625Z" fill="#799AA1"/>
<path d="M29.2188 24.0625H5.15625V41.25H29.2188V24.0625Z" fill="#ADADAD"/>
<path d="M26.6406 24.0625H5.15625V41.25H26.6406V24.0625Z" fill="#E6E6E6"/>
<path d="M38.6719 53.2812C46.7404 53.2812 53.2812 46.7404 53.2812 38.6719C53.2812 30.6033 46.7404 24.0625 38.6719 24.0625C30.6033 24.0625 24.0625 30.6033 24.0625 38.6719C24.0625 46.7404 30.6033 53.2812 38.6719 53.2812Z" fill="#FB7E2D"/>
<path d="M36.9531 53.1695C44.0724 53.1695 49.8438 46.6787 49.8438 38.6719C49.8438 30.665 44.0724 24.1742 36.9531 24.1742C29.8338 24.1742 24.0625 30.665 24.0625 38.6719C24.0625 46.6787 29.8338 53.1695 36.9531 53.1695Z" fill="#FC9857"/>
<path d="M47.2656 38.6719C47.2656 42.5465 45.7264 46.2625 42.9866 49.0023C40.2469 51.7421 36.5309 53.2812 32.6562 53.2812C28.7816 53.2812 25.0657 51.7421 22.3259 49.0023C19.5861 46.2625 18.0469 42.5465 18.0469 38.6719H47.2656Z" fill="#BC5F22"/>
<path d="M43.8281 38.6719C43.8281 41.6348 42.6511 44.4764 40.556 46.5716C38.4608 48.6667 35.6192 49.8438 32.6562 49.8438C29.6933 49.8438 26.8517 48.6667 24.7565 46.5716C22.6614 44.4764 21.4844 41.6348 21.4844 38.6719H43.8281Z" fill="#FB7E2D"/>
<path d="M32.6562 25.7812V16.5344C32.6556 15.8508 32.3836 15.1955 31.9 14.7125L29.2188 12.0312V8.59375" stroke="black" stroke-width="2" stroke-linejoin="round"/>
<path d="M5.15625 8.59375V12.0312L2.475 14.7125C1.99137 15.1955 1.71935 15.8508 1.71875 16.5344V50.7031C1.71875 51.3869 1.99037 52.0426 2.47387 52.5261C2.95736 53.0096 3.61311 53.2812 4.29688 53.2812H30.0781C30.3701 53.2815 30.6602 53.2351 30.9375 53.1438" stroke="black" stroke-width="2" stroke-linejoin="round"/>
<path d="M32.6562 1.71875H1.71875V8.59375H32.6562V1.71875Z" stroke="black" stroke-width="2" stroke-linejoin="round"/>
<path d="M24.0625 38.6719C24.0625 35.7824 24.9193 32.9578 26.5246 30.5553C28.1299 28.1528 30.4116 26.2803 33.0811 25.1746C35.7506 24.0688 38.6881 23.7795 41.522 24.3432C44.356 24.9069 46.9591 26.2983 49.0023 28.3415C51.0454 30.3846 52.4368 32.9878 53.0005 35.8217C53.5642 38.6557 53.2749 41.5931 52.1692 44.2626C51.0634 46.9322 49.1909 49.2138 46.7884 50.8191C44.3859 52.4244 41.5613 53.2813 38.6719 53.2813C37.6495 53.2807 36.63 53.1741 35.6297 52.9633" stroke="black" stroke-width="2" stroke-linejoin="round"/>
<path d="M47.2656 38.6719C47.2656 42.5465 45.7264 46.2625 42.9866 49.0023C40.2469 51.7421 36.5309 53.2812 32.6562 53.2812C28.7816 53.2812 25.0657 51.7421 22.3259 49.0023C19.5861 46.2625 18.0469 42.5465 18.0469 38.6719H47.2656Z" stroke="black" stroke-width="2" stroke-linejoin="round"/>
<path d="M43.8281 38.6719C43.8281 41.6348 42.6511 44.4764 40.556 46.5716C38.4608 48.6667 35.6192 49.8437 32.6562 49.8438C29.6933 49.8437 26.8517 48.6667 24.7565 46.5716C22.6614 44.4764 21.4844 41.6348 21.4844 38.6719" stroke="black" stroke-width="2" stroke-linejoin="round"/>
<path d="M38.6719 24.0625V21.3984C38.6721 19.824 38.055 18.3121 36.9531 17.1875L35.2344 15.4688" stroke="black" stroke-width="2" stroke-linejoin="round"/>
<path d="M32.6562 49.8438V38.6719L40.3906 46.4062" stroke="black" stroke-width="2" stroke-linejoin="round"/>
<path d="M32.6562 38.6719L24.9219 46.4062" stroke="black" stroke-width="2" stroke-linejoin="round"/>
<path d="M1.71875 20.625H32.6562" stroke="black" stroke-width="2" stroke-linejoin="round"/>
<path d="M19.7656 44.6875H1.71875" stroke="black" stroke-width="2" stroke-linejoin="round"/>
<path d="M6.875 1.71875V5.15625H27.5V1.71875" stroke="black" stroke-width="2" stroke-linejoin="round"/>
<path d="M18.2789 41.25H5.15625V24.0625H29.2188V27.5344" stroke="black" stroke-width="2" stroke-linejoin="round"/>
<path d="M39.9609 16.7578C40.786 15.9326 41.905 15.4689 43.0719 15.4688H43.8281V16.225C43.8279 17.3919 43.3643 18.5109 42.5391 19.3359C41.714 20.1611 40.595 20.6248 39.4281 20.625H38.6719V19.8688C38.6721 18.7019 39.1357 17.5828 39.9609 16.7578Z" stroke="black" stroke-width="2" stroke-linejoin="round"/>
<path d="M38.6719 27.5C40.8775 27.5 43.0337 28.1529 44.8689 29.3763C46.7041 30.5998 48.1361 32.3391 48.9844 34.375" stroke="black" stroke-width="2" stroke-linejoin="round"/>
</svg>
